<svg width="98" height="98" viewBox="0 0 98 98" fill="none" xmlns="http://www.w3.org/2000/svg">
<path d="M49 0C21.9377 0 0 21.9377 0 49C0 76.0622 21.9377 97.9999 49 97.9999C76.0622 97.9999 97.9999 76.0622 97.9999 49C97.9999 21.9377 76.0622 0 49 0ZM67.8445 55.2832C67.8445 55.2832 72.178 59.5605 73.2447 61.546C73.2754 61.5868 73.2907 61.6277 73.3009 61.6481C73.7347 62.378 73.8368 62.9445 73.6224 63.3682C73.2652 64.0725 72.0401 64.4196 71.6216 64.4503H63.9654C63.4345 64.4503 62.3218 64.3124 60.9743 63.3835C59.9382 62.6587 58.9173 61.4694 57.922 60.3108C56.4367 58.5856 55.1505 57.0952 53.854 57.0952C53.6894 57.0949 53.5257 57.1207 53.3691 57.1717C52.3891 57.4882 51.1335 58.8867 51.1335 62.6128C51.1335 63.7765 50.2147 64.4452 49.5665 64.4452H46.06C44.8656 64.4452 38.6436 64.0266 33.1311 58.213C26.3834 51.0927 20.3095 36.8112 20.2584 36.6785C19.8756 35.7547 20.6668 35.2596 21.5294 35.2596H29.2622C30.2932 35.2596 30.6301 35.8874 30.8649 36.4437C31.1405 37.0919 32.1511 39.6695 33.81 42.5687C36.4999 47.2952 38.1485 49.2143 39.4705 49.2143C39.7184 49.2114 39.9618 49.1484 40.18 49.0306C41.9052 48.071 41.5836 41.9205 41.507 40.6444C41.507 40.4045 41.5019 37.8933 40.6189 36.6887C39.986 35.8159 38.909 35.4841 38.2557 35.3616C38.5201 34.9967 38.8685 34.7009 39.2714 34.499C40.4556 33.9069 42.5891 33.8202 44.7074 33.8202H45.8864C48.1833 33.8508 48.7754 33.9988 49.6074 34.2081C51.2917 34.6113 51.3275 35.6985 51.1794 39.4194C51.1335 40.476 51.0876 41.6704 51.0876 43.0791C51.0876 43.3854 51.0723 43.712 51.0723 44.0591C51.0212 45.9528 50.96 48.1016 52.2972 48.9846C52.4717 49.094 52.6732 49.1524 52.8791 49.1531C53.3436 49.1531 54.7421 49.1531 58.5294 42.6555C59.6974 40.5641 60.7124 38.3908 61.5664 36.1528C61.643 36.0201 61.8676 35.6117 62.133 35.4535C62.3288 35.3537 62.546 35.3029 62.7659 35.3055H71.8564C72.8466 35.3055 73.5255 35.4535 73.6531 35.8363C73.8776 36.4437 73.6122 38.2965 69.4625 43.9162L67.6097 46.3611C63.848 51.2917 63.848 51.5418 67.8445 55.2832Z" fill="white"/>
</svg>
