<svg width="237" height="238" viewBox="0 0 237 238" fill="none" xmlns="http://www.w3.org/2000/svg">
<path d="M231.585 15.9943L220.809 5.17306C218.501 2.85421 213.883 2.08127 210.804 4.40011L177.709 26.8156C176.17 28.3615 174.631 29.9074 174.631 32.2262C174.631 34.5451 175.4 36.8639 176.94 38.4098L136.149 79.376L8.38751 118.796C5.30893 119.569 3 122.661 3 125.753C3 128.845 4.53929 131.936 7.61787 133.482L76.8859 160.536L103.823 230.101C104.593 233.193 107.672 234.738 110.75 234.738C113.829 234.738 116.907 232.42 117.677 229.328L159.238 96.3809L139.997 115.705C136.918 118.796 132.3 118.796 129.222 115.705C127.682 114.159 126.913 111.84 126.913 110.294L187.715 49.2311L193.102 54.6417L198.49 60.0523C200.029 61.5982 201.568 62.3712 203.877 62.3712H204.647C206.956 62.3712 209.265 60.8253 210.034 59.2794L232.354 26.0426C234.663 22.9508 234.663 19.0861 231.585 15.9943ZM116.138 154.352C114.598 155.898 112.29 156.671 110.75 156.671C109.211 156.671 106.902 155.898 105.363 154.352L83.0431 131.936C79.9645 128.845 79.9645 124.207 83.0431 121.115C86.1216 118.023 90.7395 118.023 93.8181 121.115L116.138 143.531C119.216 146.622 119.216 151.26 116.138 154.352Z" fill="#0000FF" stroke="#0000FF" stroke-width="5"/>
</svg>
