<svg width="96" height="96" viewBox="0 0 96 96" fill="none" xmlns="http://www.w3.org/2000/svg">
<path d="M48.0457 40.0165C52.61 39.9999 56.2453 36.3333 56.2286 31.7592C56.212 27.1831 52.5689 23.542 48.0026 23.5381C43.3982 23.5332 39.7209 27.2418 39.7561 31.859C39.7903 36.4165 43.4667 40.0331 48.0457 40.0165Z" fill="white"/>
<path d="M48.0002 0.400391C21.6009 0.400391 0.200195 21.8021 0.200195 48.2003C0.200195 74.5986 21.6009 96.0003 48.0002 96.0003C74.3994 96.0003 95.8001 74.5986 95.8001 48.2003C95.8001 21.8021 74.3994 0.400391 48.0002 0.400391ZM48.0686 14.9365C57.3792 14.9619 64.8521 22.5776 64.8042 31.9909C64.7573 41.1871 57.1621 48.6404 47.8671 48.6091C38.6671 48.5779 31.1218 40.9504 31.1765 31.7356C31.2284 22.4202 38.7776 14.911 48.0686 14.9365ZM66.9265 55.2244C64.8678 57.3378 62.3895 58.8674 59.6374 59.9344C57.0359 60.9428 54.1851 61.4503 51.3625 61.7887C51.7899 62.2523 51.9904 62.4802 52.2564 62.7462C56.0863 66.5966 59.9347 70.4275 63.7519 74.2886C65.0526 75.605 65.3235 77.2363 64.6076 78.7649C63.8262 80.4373 62.0727 81.5366 60.3523 81.4183C59.2628 81.3429 58.413 80.8021 57.6589 80.0422C54.7679 77.1336 51.8222 74.2769 48.9918 71.3135C48.1654 70.4509 47.7703 70.6152 47.0417 71.3644C44.1341 74.359 41.1786 77.3058 38.2064 80.2368C36.8714 81.5532 35.2832 81.7919 33.734 81.0388C32.088 80.2427 31.0416 78.5615 31.1218 76.8705C31.1785 75.7302 31.7399 74.8559 32.5242 74.0754C36.3159 70.2915 40.0959 66.4959 43.8769 62.7032C44.1282 62.4518 44.361 62.1848 44.7258 61.7936C39.5688 61.2547 34.9184 59.9853 30.9369 56.8723C30.442 56.485 29.9325 56.1114 29.4826 55.6772C27.7388 54.0038 27.5638 52.086 28.9418 50.1123C30.1222 48.4224 32.1017 47.9705 34.1604 48.9417C34.5594 49.1285 34.9389 49.3651 35.3027 49.6155C42.7219 54.7139 52.9146 54.8537 60.3631 49.8434C61.1005 49.2801 61.8898 48.8165 62.8042 48.5827C64.5803 48.125 66.239 48.7793 67.1915 50.3344C68.282 52.1114 68.2693 53.8444 66.9265 55.2244Z" fill="white"/>
</svg>
