<svg width="222" height="239" viewBox="0 0 222 239" fill="none" xmlns="http://www.w3.org/2000/svg">
<path d="M192.434 19.0749C176.22 19.0749 163.822 31.4735 163.822 47.6872V68.6695C160.96 67.7158 158.099 66.762 154.284 66.762C146.654 66.762 139.978 69.6233 135.209 74.392C130.441 69.6233 123.764 66.762 116.134 66.762C112.32 66.762 109.458 67.7158 106.597 68.6695V28.6123C106.597 12.3987 94.1984 0 77.9848 0C61.7711 0 49.3725 12.3987 49.3725 28.6123V114.449V132.57C44.6037 127.802 37.9275 123.987 30.2976 123.987C21.7139 123.987 14.0839 126.848 8.36149 132.57C-2.12969 143.061 -3.08343 161.183 7.40775 172.628L37.9275 206.962C55.0949 226.991 79.8922 238.436 106.597 238.436H141.886C185.758 238.436 222 202.194 222 158.321V152.599V114.449V47.6872C221.046 31.4735 208.648 19.0749 192.434 19.0749ZM201.971 114.449V152.599V158.321C201.971 191.702 174.313 219.361 140.932 219.361H105.643C84.661 219.361 65.5861 210.777 51.2799 194.564L20.7602 160.229C16.9452 156.414 16.9452 149.738 21.7139 145.923C23.6214 144.015 26.4826 143.061 29.3438 143.061C32.2051 143.061 35.0663 144.969 36.9738 146.876L51.2799 164.044C54.1412 166.905 57.9562 167.859 61.7711 166.905C65.5861 165.951 68.4473 162.136 68.4473 158.321V133.524V114.449V28.6123C68.4473 22.8898 72.2623 19.0749 77.9848 19.0749C83.7072 19.0749 87.5222 22.8898 87.5222 28.6123V95.3743V104.912C87.5222 110.634 91.3372 114.449 97.0596 114.449C102.782 114.449 106.597 110.634 106.597 104.912V95.3743C106.597 89.6519 110.412 85.8369 116.134 85.8369C121.857 85.8369 125.672 89.6519 125.672 95.3743V104.912C125.672 110.634 129.487 114.449 135.209 114.449C140.932 114.449 144.747 110.634 144.747 104.912V95.3743C144.747 89.6519 148.562 85.8369 154.284 85.8369C160.007 85.8369 163.822 89.6519 163.822 95.3743V104.912C163.822 110.634 167.637 114.449 173.359 114.449C179.082 114.449 182.897 110.634 182.897 104.912V95.3743V47.6872C182.897 41.9647 186.712 38.1497 192.434 38.1497C198.156 38.1497 201.971 41.9647 201.971 47.6872V114.449Z" fill="#0000FF"/>
</svg>
