<svg width="121" height="239" viewBox="0 0 121 239" fill="none" xmlns="http://www.w3.org/2000/svg">
<path d="M119.5 144.893C119.5 138.968 116.961 129.657 109.343 122.886C103.418 117.807 93.2607 111.882 77.1786 113.575C75.4857 113.575 74.6393 113.575 72.9464 114.421C71.2536 109.343 70.4071 104.264 68.7143 99.1857C85.6429 83.95 94.1071 66.175 94.1071 43.3214C94.1071 12.85 73.7929 2.69286 72.9464 1.84643C70.4071 0.999999 68.7143 1 66.175 1C53.4786 5.23214 30.625 21.3143 39.0893 55.1714C43.3214 71.2536 45.8607 82.2571 48.4 91.5679C45.8607 93.2607 42.475 95.8 39.0893 97.4929C14.5429 111.882 1.84643 127.118 1 144.893C1 155.896 6.07857 168.593 16.2357 177.904C27.2393 188.907 43.3214 194.832 61.0964 193.986C65.3286 193.986 70.4072 193.139 74.6393 192.293C75.4857 205.836 72.1 212.607 69.5607 215.993C65.3286 221.071 61.0964 221.071 60.25 221.071C58.5571 221.071 56.8643 220.225 56.8643 220.225C56.8643 220.225 56.8643 220.225 57.7107 219.379C61.0964 215.993 61.0964 210.914 57.7107 207.529C54.325 204.143 49.2464 204.143 45.8607 207.529C39.9357 212.607 38.2429 220.225 40.7821 226.996C44.1679 232.921 51.7857 238 60.25 238C67.0214 238 76.3322 234.614 83.1036 226.15C89.875 216.839 92.4143 204.143 90.7214 186.368C106.804 178.75 119.5 165.207 119.5 144.893ZM67.8679 18.775C71.2536 22.1607 77.1786 29.7786 77.1786 43.3214C77.1786 57.7107 72.9464 69.5607 63.6357 79.7179C61.9429 72.1 59.4036 62.7893 56.0179 50.9393C50.9393 31.4714 61.9429 22.1607 67.8679 18.775ZM60.25 177.057C44.1679 177.904 34.0107 171.132 28.0857 166.054C20.4679 159.282 17.9286 150.818 18.775 145.739C18.775 134.736 28.9321 122.886 48.4 112.729C50.0929 111.882 52.6321 110.189 54.325 109.343C55.1714 112.729 56.0179 116.961 57.7107 120.346C46.7071 127.964 38.2429 138.968 35.7036 151.664C34.8571 155.896 38.2429 160.975 42.475 160.975C46.7071 161.821 51.7857 158.436 51.7857 154.204C52.6321 148.279 56.8643 142.354 61.9429 138.121L69.5607 163.514C70.4072 167.746 72.1 171.132 72.1 175.364C67.8679 176.211 63.6357 177.057 60.25 177.057ZM88.1821 168.593C87.3357 165.207 86.4893 161.821 85.6429 158.436L77.1786 129.657H78.025C86.4893 128.811 93.2607 130.504 97.4929 134.736C101.725 138.121 102.571 142.354 102.571 144.046C102.571 155.896 96.6464 163.514 88.1821 168.593Z" fill="#0000FF" stroke="#0000FF" stroke-width="2"/>
</svg>
