<svg width="96" height="96" viewBox="0 0 96 96" fill="none" xmlns="http://www.w3.org/2000/svg">
<path d="M67.6239 28.7331C67.643 28.7331 67.6685 28.7331 67.694 28.7331C68.3602 28.7331 68.9785 28.9402 69.4853 29.2972L69.4757 29.2908C69.8454 29.6127 70.094 30.0653 70.1546 30.5753V30.5849C70.2183 30.9737 70.2534 31.4199 70.2534 31.8757C70.2534 32.0829 70.247 32.2869 70.2311 32.4908V32.4622C69.5139 40.0127 66.4032 58.3235 64.8223 66.7761C64.153 70.3554 62.8367 71.5538 61.5618 71.6685C58.792 71.9267 56.6884 69.839 54.0048 68.0797C49.804 65.3227 47.4295 63.608 43.353 60.9211C38.639 57.8199 41.6956 56.1084 44.3793 53.3227C45.0837 52.5896 57.294 41.4821 57.5331 40.4749C57.5458 40.4143 57.5522 40.3474 57.5522 40.2773C57.5522 40.0287 57.4598 39.8024 57.31 39.6303C57.1442 39.5219 56.9371 39.4614 56.7203 39.4614C56.5769 39.4614 56.4398 39.49 56.3124 39.5378L56.3187 39.5347C55.898 39.6303 49.1878 44.0648 36.188 52.8382C34.7697 53.957 32.9785 54.6645 31.0279 54.7474H31.0088C28.2454 54.4127 25.7371 53.7976 23.3562 52.9211L23.592 52.9976C20.6024 52.0223 18.2279 51.5092 18.4319 49.8582C18.5402 48.9997 19.7238 48.1211 21.9825 47.2223C35.8959 41.1602 45.174 37.1644 49.8167 35.2351C54.9386 32.5163 60.8765 30.2789 67.1203 28.8287L67.6207 28.7299L67.6239 28.7331ZM47.8885 0C21.4279 0.063745 0 21.5299 0 48C0 74.5084 21.4884 96 48 96C74.5116 96 96 74.5116 96 48C96 21.5299 74.5721 0.063745 48.1179 0H48.1116C48.0372 0 47.9628 0 47.8885 0Z" fill="white"/>
</svg>
